<mxfile host="app.diagrams.net" modified="2024-06-29T10:51:58.349Z" agent="Mozilla/5.0 (X11; Ubuntu; Linux x86_64; rv:127.0) Gecko/20100101 Firefox/127.0" etag="zvD93pGEkWmyJMzrw3yP" version="24.6.4" type="device">
  <diagram name="Page-1" id="gjKDVa9nnFpzQ2I09Yjt">
    <mxGraphModel dx="1430" dy="1665" grid="1" gridSize="10" guides="1" tooltips="1" connect="1" arrows="1" fold="1" page="1" pageScale="1" pageWidth="1100" pageHeight="850" math="0" shadow="0">
      <root>
        <mxCell id="0" />
        <mxCell id="1" parent="0" />
        <mxCell id="-Iv5MNubf8i9KW6JQkJ8-9" style="edgeStyle=orthogonalEdgeStyle;rounded=0;orthogonalLoop=1;jettySize=auto;html=1;exitX=0.5;exitY=0;exitDx=0;exitDy=0;entryX=0;entryY=0.5;entryDx=0;entryDy=0;curved=1;fillColor=#60a917;strokeColor=#2D7600;" edge="1" parent="1" source="-Iv5MNubf8i9KW6JQkJ8-1" target="-Iv5MNubf8i9KW6JQkJ8-6">
          <mxGeometry relative="1" as="geometry" />
        </mxCell>
        <mxCell id="-Iv5MNubf8i9KW6JQkJ8-1" value="0" style="ellipse;whiteSpace=wrap;html=1;aspect=fixed;" vertex="1" parent="1">
          <mxGeometry x="70" y="110" width="40" height="40" as="geometry" />
        </mxCell>
        <mxCell id="-Iv5MNubf8i9KW6JQkJ8-11" style="edgeStyle=orthogonalEdgeStyle;rounded=0;orthogonalLoop=1;jettySize=auto;html=1;exitX=1;exitY=0.5;exitDx=0;exitDy=0;entryX=0.5;entryY=0;entryDx=0;entryDy=0;curved=1;fillColor=#d80073;strokeColor=#A50040;" edge="1" parent="1" source="-Iv5MNubf8i9KW6JQkJ8-2" target="-Iv5MNubf8i9KW6JQkJ8-4">
          <mxGeometry relative="1" as="geometry" />
        </mxCell>
        <mxCell id="-Iv5MNubf8i9KW6JQkJ8-12" style="edgeStyle=orthogonalEdgeStyle;rounded=0;orthogonalLoop=1;jettySize=auto;html=1;exitX=0.5;exitY=1;exitDx=0;exitDy=0;entryX=0.5;entryY=0;entryDx=0;entryDy=0;curved=1;fillColor=#1ba1e2;strokeColor=#006EAF;" edge="1" parent="1" source="-Iv5MNubf8i9KW6JQkJ8-2" target="-Iv5MNubf8i9KW6JQkJ8-5">
          <mxGeometry relative="1" as="geometry" />
        </mxCell>
        <mxCell id="-Iv5MNubf8i9KW6JQkJ8-2" value="1" style="ellipse;whiteSpace=wrap;html=1;aspect=fixed;" vertex="1" parent="1">
          <mxGeometry x="180" y="130" width="40" height="40" as="geometry" />
        </mxCell>
        <mxCell id="-Iv5MNubf8i9KW6JQkJ8-15" style="edgeStyle=orthogonalEdgeStyle;rounded=0;orthogonalLoop=1;jettySize=auto;html=1;entryX=0.5;entryY=1;entryDx=0;entryDy=0;curved=1;fillColor=#e3c800;strokeColor=#B09500;" edge="1" parent="1" source="-Iv5MNubf8i9KW6JQkJ8-3" target="-Iv5MNubf8i9KW6JQkJ8-1">
          <mxGeometry relative="1" as="geometry" />
        </mxCell>
        <mxCell id="-Iv5MNubf8i9KW6JQkJ8-3" value="3" style="ellipse;whiteSpace=wrap;html=1;aspect=fixed;" vertex="1" parent="1">
          <mxGeometry x="60" y="240" width="40" height="40" as="geometry" />
        </mxCell>
        <mxCell id="-Iv5MNubf8i9KW6JQkJ8-13" style="edgeStyle=orthogonalEdgeStyle;rounded=0;orthogonalLoop=1;jettySize=auto;html=1;exitX=0;exitY=0.5;exitDx=0;exitDy=0;entryX=1;entryY=0.5;entryDx=0;entryDy=0;curved=1;fillColor=#a20025;strokeColor=#6F0000;" edge="1" parent="1" source="-Iv5MNubf8i9KW6JQkJ8-4" target="-Iv5MNubf8i9KW6JQkJ8-5">
          <mxGeometry relative="1" as="geometry" />
        </mxCell>
        <mxCell id="-Iv5MNubf8i9KW6JQkJ8-4" value="5" style="ellipse;whiteSpace=wrap;html=1;aspect=fixed;" vertex="1" parent="1">
          <mxGeometry x="350" y="220" width="40" height="40" as="geometry" />
        </mxCell>
        <mxCell id="-Iv5MNubf8i9KW6JQkJ8-14" style="edgeStyle=orthogonalEdgeStyle;rounded=0;orthogonalLoop=1;jettySize=auto;html=1;exitX=0.5;exitY=1;exitDx=0;exitDy=0;entryX=1;entryY=0.5;entryDx=0;entryDy=0;curved=1;fillColor=#f0a30a;strokeColor=#BD7000;" edge="1" parent="1" source="-Iv5MNubf8i9KW6JQkJ8-5" target="-Iv5MNubf8i9KW6JQkJ8-3">
          <mxGeometry relative="1" as="geometry" />
        </mxCell>
        <mxCell id="-Iv5MNubf8i9KW6JQkJ8-5" value="4" style="ellipse;whiteSpace=wrap;html=1;aspect=fixed;" vertex="1" parent="1">
          <mxGeometry x="220" y="230" width="40" height="40" as="geometry" />
        </mxCell>
        <mxCell id="-Iv5MNubf8i9KW6JQkJ8-6" value="2" style="ellipse;whiteSpace=wrap;html=1;aspect=fixed;" vertex="1" parent="1">
          <mxGeometry x="290" y="30" width="40" height="40" as="geometry" />
        </mxCell>
        <mxCell id="-Iv5MNubf8i9KW6JQkJ8-10" style="edgeStyle=orthogonalEdgeStyle;rounded=0;orthogonalLoop=1;jettySize=auto;html=1;exitX=0.5;exitY=1;exitDx=0;exitDy=0;entryX=0.5;entryY=0;entryDx=0;entryDy=0;curved=1;fillColor=#0050ef;strokeColor=#001DBC;" edge="1" parent="1" source="-Iv5MNubf8i9KW6JQkJ8-6" target="-Iv5MNubf8i9KW6JQkJ8-2">
          <mxGeometry relative="1" as="geometry" />
        </mxCell>
        <mxCell id="-Iv5MNubf8i9KW6JQkJ8-17" value="&lt;div&gt;&lt;font color=&quot;#60a917&quot;&gt;0, 2&lt;/font&gt;&lt;/div&gt;&lt;div&gt;&lt;font color=&quot;#0050ef&quot;&gt;2, 1&lt;/font&gt;&lt;/div&gt;&lt;div&gt;&lt;font color=&quot;#d80073&quot;&gt;1, 5&lt;/font&gt;&lt;/div&gt;&lt;div&gt;&lt;font color=&quot;#1ba1e2&quot;&gt;1, 4&lt;/font&gt;&lt;/div&gt;&lt;div&gt;&lt;font color=&quot;#a20025&quot;&gt;4, 3&lt;/font&gt;&lt;/div&gt;&lt;div&gt;&lt;font color=&quot;#f0a30a&quot;&gt;3, 0&lt;/font&gt;&lt;/div&gt;&lt;div&gt;&lt;font color=&quot;#e3c800&quot;&gt;5,4&lt;/font&gt;&lt;br&gt;&lt;/div&gt;" style="text;html=1;align=center;verticalAlign=middle;whiteSpace=wrap;rounded=0;" vertex="1" parent="1">
          <mxGeometry x="120" y="390" width="40" height="100" as="geometry" />
        </mxCell>
        <mxCell id="-Iv5MNubf8i9KW6JQkJ8-19" value="" style="shape=curlyBracket;whiteSpace=wrap;html=1;rounded=1;labelPosition=left;verticalLabelPosition=middle;align=right;verticalAlign=middle;" vertex="1" parent="1">
          <mxGeometry x="100" y="380" width="20" height="120" as="geometry" />
        </mxCell>
        <mxCell id="-Iv5MNubf8i9KW6JQkJ8-20" value="" style="shape=curlyBracket;whiteSpace=wrap;html=1;rounded=1;flipH=1;labelPosition=right;verticalLabelPosition=middle;align=left;verticalAlign=middle;" vertex="1" parent="1">
          <mxGeometry x="160" y="380" width="20" height="120" as="geometry" />
        </mxCell>
        <mxCell id="-Iv5MNubf8i9KW6JQkJ8-21" value="&lt;div&gt;Cov=20,&lt;/div&gt;&lt;div&gt;Len=30&lt;br&gt;&lt;/div&gt;" style="text;html=1;align=center;verticalAlign=middle;whiteSpace=wrap;rounded=1;fillColor=#e3c800;strokeColor=#B09500;fontColor=#000000;" vertex="1" parent="1">
          <mxGeometry y="180" width="60" height="30" as="geometry" />
        </mxCell>
        <mxCell id="-Iv5MNubf8i9KW6JQkJ8-22" value="&lt;div&gt;Cov=21,&lt;/div&gt;&lt;div&gt;Len=2&lt;br&gt;&lt;/div&gt;" style="text;html=1;align=center;verticalAlign=middle;whiteSpace=wrap;rounded=1;fillColor=#60a917;strokeColor=#2D7600;fontColor=#ffffff;" vertex="1" parent="1">
          <mxGeometry x="120" width="60" height="30" as="geometry" />
        </mxCell>
        <mxCell id="-Iv5MNubf8i9KW6JQkJ8-23" value="&lt;div&gt;Cov=19,&lt;/div&gt;&lt;div&gt;Len=21&lt;br&gt;&lt;/div&gt;" style="text;html=1;align=center;verticalAlign=middle;whiteSpace=wrap;rounded=1;fillColor=#0050ef;strokeColor=#001DBC;fontColor=#ffffff;" vertex="1" parent="1">
          <mxGeometry x="310" y="80" width="60" height="30" as="geometry" />
        </mxCell>
        <mxCell id="-Iv5MNubf8i9KW6JQkJ8-24" value="&lt;div&gt;Cov=20,&lt;/div&gt;&lt;div&gt;Len=43&lt;br&gt;&lt;/div&gt;" style="text;html=1;align=center;verticalAlign=middle;whiteSpace=wrap;rounded=1;fillColor=#f0a30a;strokeColor=#BD7000;fontColor=#000000;" vertex="1" parent="1">
          <mxGeometry x="140" y="300" width="60" height="30" as="geometry" />
        </mxCell>
        <mxCell id="-Iv5MNubf8i9KW6JQkJ8-25" value="&lt;div&gt;Cov=19,&lt;/div&gt;&lt;div&gt;Len=54&lt;br&gt;&lt;/div&gt;" style="text;html=1;align=center;verticalAlign=middle;whiteSpace=wrap;rounded=1;fillColor=#a20025;strokeColor=#6F0000;fontColor=#ffffff;" vertex="1" parent="1">
          <mxGeometry x="290" y="270" width="60" height="30" as="geometry" />
        </mxCell>
        <mxCell id="-Iv5MNubf8i9KW6JQkJ8-26" value="&lt;div&gt;Cov=19,&lt;/div&gt;&lt;div&gt;Len=15&lt;br&gt;&lt;/div&gt;" style="text;html=1;align=center;verticalAlign=middle;whiteSpace=wrap;rounded=1;fillColor=#d80073;strokeColor=#A50040;fontColor=#ffffff;" vertex="1" parent="1">
          <mxGeometry x="360" y="150" width="60" height="30" as="geometry" />
        </mxCell>
        <mxCell id="-Iv5MNubf8i9KW6JQkJ8-27" value="&lt;div&gt;Cov=1,&lt;/div&gt;&lt;div&gt;Len=14&lt;br&gt;&lt;/div&gt;" style="text;html=1;align=center;verticalAlign=middle;whiteSpace=wrap;rounded=1;fillColor=#1ba1e2;strokeColor=#006EAF;fontColor=#ffffff;" vertex="1" parent="1">
          <mxGeometry x="140" y="190" width="60" height="30" as="geometry" />
        </mxCell>
        <mxCell id="-Iv5MNubf8i9KW6JQkJ8-32" value="&lt;font color=&quot;#60a917&quot;&gt;21,&amp;nbsp; 2&lt;/font&gt;&lt;br&gt;&lt;div&gt;&lt;font color=&quot;#0050ef&quot;&gt;19, 21&lt;/font&gt;&lt;br&gt;&lt;/div&gt;&lt;div&gt;&lt;font color=&quot;#d80073&quot;&gt;&amp;nbsp;1, 14&lt;/font&gt;&lt;br&gt;&lt;/div&gt;&lt;div&gt;&lt;font color=&quot;#1ba1e2&quot;&gt;19, 15&lt;/font&gt;&lt;br&gt;&lt;/div&gt;&lt;div&gt;&lt;font color=&quot;#a20025&quot;&gt;20, 43&lt;/font&gt;&lt;br&gt;&lt;/div&gt;&lt;div&gt;&lt;font color=&quot;#f0a30a&quot;&gt;20, 30&lt;/font&gt;&lt;/div&gt;&lt;div&gt;&lt;font color=&quot;#e3c800&quot;&gt;19, 54&lt;/font&gt;&lt;br&gt;&lt;/div&gt;" style="text;html=1;align=center;verticalAlign=middle;whiteSpace=wrap;rounded=0;" vertex="1" parent="1">
          <mxGeometry x="210" y="390" width="60" height="100" as="geometry" />
        </mxCell>
        <mxCell id="-Iv5MNubf8i9KW6JQkJ8-33" value="" style="shape=curlyBracket;whiteSpace=wrap;html=1;rounded=1;labelPosition=left;verticalLabelPosition=middle;align=right;verticalAlign=middle;" vertex="1" parent="1">
          <mxGeometry x="200" y="380" width="20" height="120" as="geometry" />
        </mxCell>
        <mxCell id="-Iv5MNubf8i9KW6JQkJ8-34" value="" style="shape=curlyBracket;whiteSpace=wrap;html=1;rounded=1;flipH=1;labelPosition=right;verticalLabelPosition=middle;align=left;verticalAlign=middle;size=0.5;" vertex="1" parent="1">
          <mxGeometry x="260" y="380" width="20" height="120" as="geometry" />
        </mxCell>
        <mxCell id="-Iv5MNubf8i9KW6JQkJ8-36" value="edge_index" style="text;html=1;align=center;verticalAlign=middle;whiteSpace=wrap;rounded=0;" vertex="1" parent="1">
          <mxGeometry x="100" y="510" width="80" height="30" as="geometry" />
        </mxCell>
        <mxCell id="-Iv5MNubf8i9KW6JQkJ8-37" value="edge_attrs" style="text;html=1;align=center;verticalAlign=middle;whiteSpace=wrap;rounded=0;" vertex="1" parent="1">
          <mxGeometry x="200" y="510" width="80" height="30" as="geometry" />
        </mxCell>
        <mxCell id="-Iv5MNubf8i9KW6JQkJ8-38" value="6" style="ellipse;whiteSpace=wrap;html=1;aspect=fixed;" vertex="1" parent="1">
          <mxGeometry x="440" y="230" width="40" height="40" as="geometry" />
        </mxCell>
        <mxCell id="-Iv5MNubf8i9KW6JQkJ8-39" value="&lt;div&gt;0&lt;/div&gt;&lt;div&gt;1&lt;/div&gt;&lt;div&gt;2&lt;/div&gt;&lt;div&gt;3&lt;/div&gt;&lt;div&gt;4&lt;/div&gt;&lt;div&gt;5&lt;/div&gt;&lt;div&gt;6&lt;br&gt;&lt;/div&gt;" style="text;html=1;align=center;verticalAlign=middle;whiteSpace=wrap;rounded=0;" vertex="1" parent="1">
          <mxGeometry x="335" y="385" width="60" height="110" as="geometry" />
        </mxCell>
        <mxCell id="-Iv5MNubf8i9KW6JQkJ8-41" value="" style="shape=curlyBracket;whiteSpace=wrap;html=1;rounded=1;labelPosition=left;verticalLabelPosition=middle;align=right;verticalAlign=middle;size=0.5;" vertex="1" parent="1">
          <mxGeometry x="335" y="380" width="20" height="120" as="geometry" />
        </mxCell>
        <mxCell id="-Iv5MNubf8i9KW6JQkJ8-42" value="" style="shape=curlyBracket;whiteSpace=wrap;html=1;rounded=1;flipH=1;labelPosition=right;verticalLabelPosition=middle;align=left;verticalAlign=middle;size=0.5;" vertex="1" parent="1">
          <mxGeometry x="370" y="380" width="30" height="120" as="geometry" />
        </mxCell>
        <mxCell id="-Iv5MNubf8i9KW6JQkJ8-43" value="nodes" style="text;html=1;align=center;verticalAlign=middle;whiteSpace=wrap;rounded=0;" vertex="1" parent="1">
          <mxGeometry x="330" y="510" width="80" height="30" as="geometry" />
        </mxCell>
        <mxCell id="-Iv5MNubf8i9KW6JQkJ8-44" style="edgeStyle=orthogonalEdgeStyle;rounded=0;orthogonalLoop=1;jettySize=auto;html=1;exitX=0.5;exitY=0;exitDx=0;exitDy=0;entryX=0;entryY=0.5;entryDx=0;entryDy=0;curved=1;fillColor=#60a917;strokeColor=#2D7600;" edge="1" parent="1" source="-Iv5MNubf8i9KW6JQkJ8-45" target="-Iv5MNubf8i9KW6JQkJ8-55">
          <mxGeometry relative="1" as="geometry" />
        </mxCell>
        <mxCell id="-Iv5MNubf8i9KW6JQkJ8-45" value="0" style="ellipse;whiteSpace=wrap;html=1;aspect=fixed;" vertex="1" parent="1">
          <mxGeometry x="670" y="110" width="40" height="40" as="geometry" />
        </mxCell>
        <mxCell id="-Iv5MNubf8i9KW6JQkJ8-46" style="edgeStyle=orthogonalEdgeStyle;rounded=0;orthogonalLoop=1;jettySize=auto;html=1;exitX=1;exitY=0.5;exitDx=0;exitDy=0;entryX=0.5;entryY=0;entryDx=0;entryDy=0;curved=1;fillColor=#d80073;strokeColor=#A50040;" edge="1" parent="1" source="-Iv5MNubf8i9KW6JQkJ8-48" target="-Iv5MNubf8i9KW6JQkJ8-52">
          <mxGeometry relative="1" as="geometry" />
        </mxCell>
        <mxCell id="-Iv5MNubf8i9KW6JQkJ8-47" style="edgeStyle=orthogonalEdgeStyle;rounded=0;orthogonalLoop=1;jettySize=auto;html=1;exitX=0.5;exitY=1;exitDx=0;exitDy=0;entryX=0.5;entryY=0;entryDx=0;entryDy=0;curved=1;fillColor=#1ba1e2;strokeColor=#006EAF;" edge="1" parent="1" source="-Iv5MNubf8i9KW6JQkJ8-48" target="-Iv5MNubf8i9KW6JQkJ8-54">
          <mxGeometry relative="1" as="geometry" />
        </mxCell>
        <mxCell id="-Iv5MNubf8i9KW6JQkJ8-48" value="1" style="ellipse;whiteSpace=wrap;html=1;aspect=fixed;" vertex="1" parent="1">
          <mxGeometry x="780" y="130" width="40" height="40" as="geometry" />
        </mxCell>
        <mxCell id="-Iv5MNubf8i9KW6JQkJ8-49" style="edgeStyle=orthogonalEdgeStyle;rounded=0;orthogonalLoop=1;jettySize=auto;html=1;entryX=0.5;entryY=1;entryDx=0;entryDy=0;curved=1;fillColor=#e3c800;strokeColor=#B09500;" edge="1" parent="1" source="-Iv5MNubf8i9KW6JQkJ8-50" target="-Iv5MNubf8i9KW6JQkJ8-45">
          <mxGeometry relative="1" as="geometry" />
        </mxCell>
        <mxCell id="-Iv5MNubf8i9KW6JQkJ8-50" value="3" style="ellipse;whiteSpace=wrap;html=1;aspect=fixed;" vertex="1" parent="1">
          <mxGeometry x="660" y="240" width="40" height="40" as="geometry" />
        </mxCell>
        <mxCell id="-Iv5MNubf8i9KW6JQkJ8-51" style="edgeStyle=orthogonalEdgeStyle;rounded=0;orthogonalLoop=1;jettySize=auto;html=1;exitX=0;exitY=0.5;exitDx=0;exitDy=0;entryX=1;entryY=0.5;entryDx=0;entryDy=0;curved=1;fillColor=#a20025;strokeColor=#6F0000;" edge="1" parent="1" source="-Iv5MNubf8i9KW6JQkJ8-52" target="-Iv5MNubf8i9KW6JQkJ8-54">
          <mxGeometry relative="1" as="geometry" />
        </mxCell>
        <mxCell id="-Iv5MNubf8i9KW6JQkJ8-52" value="5" style="ellipse;whiteSpace=wrap;html=1;aspect=fixed;" vertex="1" parent="1">
          <mxGeometry x="950" y="220" width="40" height="40" as="geometry" />
        </mxCell>
        <mxCell id="-Iv5MNubf8i9KW6JQkJ8-53" style="edgeStyle=orthogonalEdgeStyle;rounded=0;orthogonalLoop=1;jettySize=auto;html=1;exitX=0.5;exitY=1;exitDx=0;exitDy=0;entryX=1;entryY=0.5;entryDx=0;entryDy=0;curved=1;fillColor=#f0a30a;strokeColor=#BD7000;" edge="1" parent="1" source="-Iv5MNubf8i9KW6JQkJ8-54" target="-Iv5MNubf8i9KW6JQkJ8-50">
          <mxGeometry relative="1" as="geometry" />
        </mxCell>
        <mxCell id="-Iv5MNubf8i9KW6JQkJ8-54" value="4" style="ellipse;whiteSpace=wrap;html=1;aspect=fixed;" vertex="1" parent="1">
          <mxGeometry x="820" y="230" width="40" height="40" as="geometry" />
        </mxCell>
        <mxCell id="-Iv5MNubf8i9KW6JQkJ8-55" value="2" style="ellipse;whiteSpace=wrap;html=1;aspect=fixed;" vertex="1" parent="1">
          <mxGeometry x="890" y="30" width="40" height="40" as="geometry" />
        </mxCell>
        <mxCell id="-Iv5MNubf8i9KW6JQkJ8-56" style="edgeStyle=orthogonalEdgeStyle;rounded=0;orthogonalLoop=1;jettySize=auto;html=1;exitX=0.5;exitY=1;exitDx=0;exitDy=0;entryX=0.5;entryY=0;entryDx=0;entryDy=0;curved=1;fillColor=#0050ef;strokeColor=#001DBC;" edge="1" parent="1" source="-Iv5MNubf8i9KW6JQkJ8-55" target="-Iv5MNubf8i9KW6JQkJ8-48">
          <mxGeometry relative="1" as="geometry" />
        </mxCell>
        <mxCell id="-Iv5MNubf8i9KW6JQkJ8-57" value="Mul=3.1" style="text;html=1;align=center;verticalAlign=middle;whiteSpace=wrap;rounded=1;fillColor=#e3c800;strokeColor=#B09500;fontColor=#000000;" vertex="1" parent="1">
          <mxGeometry x="600" y="180" width="60" height="30" as="geometry" />
        </mxCell>
        <mxCell id="-Iv5MNubf8i9KW6JQkJ8-58" value="Mul=2.9" style="text;html=1;align=center;verticalAlign=middle;whiteSpace=wrap;rounded=1;fillColor=#60a917;strokeColor=#2D7600;fontColor=#ffffff;" vertex="1" parent="1">
          <mxGeometry x="720" width="60" height="30" as="geometry" />
        </mxCell>
        <mxCell id="-Iv5MNubf8i9KW6JQkJ8-59" value="Mul=3.4" style="text;html=1;align=center;verticalAlign=middle;whiteSpace=wrap;rounded=1;fillColor=#0050ef;strokeColor=#001DBC;fontColor=#ffffff;" vertex="1" parent="1">
          <mxGeometry x="910" y="80" width="60" height="30" as="geometry" />
        </mxCell>
        <mxCell id="-Iv5MNubf8i9KW6JQkJ8-60" value="Mul=3.2" style="text;html=1;align=center;verticalAlign=middle;whiteSpace=wrap;rounded=1;fillColor=#f0a30a;strokeColor=#BD7000;fontColor=#000000;" vertex="1" parent="1">
          <mxGeometry x="740" y="300" width="60" height="30" as="geometry" />
        </mxCell>
        <mxCell id="-Iv5MNubf8i9KW6JQkJ8-61" value="Mul=2.9" style="text;html=1;align=center;verticalAlign=middle;whiteSpace=wrap;rounded=1;fillColor=#a20025;strokeColor=#6F0000;fontColor=#ffffff;" vertex="1" parent="1">
          <mxGeometry x="890" y="270" width="60" height="30" as="geometry" />
        </mxCell>
        <mxCell id="-Iv5MNubf8i9KW6JQkJ8-62" value="Mul=2.5" style="text;html=1;align=center;verticalAlign=middle;whiteSpace=wrap;rounded=1;fillColor=#d80073;strokeColor=#A50040;fontColor=#ffffff;" vertex="1" parent="1">
          <mxGeometry x="960" y="150" width="60" height="30" as="geometry" />
        </mxCell>
        <mxCell id="-Iv5MNubf8i9KW6JQkJ8-63" value="Mul=0.3" style="text;html=1;align=center;verticalAlign=middle;whiteSpace=wrap;rounded=1;fillColor=#1ba1e2;strokeColor=#006EAF;fontColor=#ffffff;" vertex="1" parent="1">
          <mxGeometry x="740" y="190" width="60" height="30" as="geometry" />
        </mxCell>
        <mxCell id="-Iv5MNubf8i9KW6JQkJ8-64" value="6" style="ellipse;whiteSpace=wrap;html=1;aspect=fixed;" vertex="1" parent="1">
          <mxGeometry x="1040" y="230" width="40" height="40" as="geometry" />
        </mxCell>
        <mxCell id="-Iv5MNubf8i9KW6JQkJ8-66" value="" style="endArrow=none;dashed=1;html=1;dashPattern=1 3;strokeWidth=2;rounded=0;" edge="1" parent="1">
          <mxGeometry width="50" height="50" relative="1" as="geometry">
            <mxPoint x="540" y="560" as="sourcePoint" />
            <mxPoint x="540" as="targetPoint" />
          </mxGeometry>
        </mxCell>
        <mxCell id="-Iv5MNubf8i9KW6JQkJ8-67" value="&lt;font color=&quot;#60a917&quot;&gt;2.9&lt;/font&gt;&lt;br&gt;&lt;div&gt;&lt;font color=&quot;#0050ef&quot;&gt;3.4&lt;/font&gt;&lt;br&gt;&lt;/div&gt;&lt;div&gt;&lt;font color=&quot;#d80073&quot;&gt;&amp;nbsp;2.5&lt;/font&gt;&lt;br&gt;&lt;/div&gt;&lt;div&gt;&lt;font color=&quot;#1ba1e2&quot;&gt;0.3&lt;/font&gt;&lt;br&gt;&lt;/div&gt;&lt;div&gt;&lt;font color=&quot;#a20025&quot;&gt;2.9&lt;/font&gt;&lt;br&gt;&lt;/div&gt;&lt;div&gt;&lt;font color=&quot;#f0a30a&quot;&gt;3.2&lt;br&gt;&lt;/font&gt;&lt;/div&gt;&lt;div&gt;&lt;font color=&quot;#e3c800&quot;&gt;3.1&lt;/font&gt;&lt;br&gt;&lt;/div&gt;" style="text;html=1;align=center;verticalAlign=middle;whiteSpace=wrap;rounded=0;" vertex="1" parent="1">
          <mxGeometry x="830" y="390" width="60" height="100" as="geometry" />
        </mxCell>
        <mxCell id="-Iv5MNubf8i9KW6JQkJ8-65" value="" style="shape=flexArrow;endArrow=classic;html=1;rounded=0;width=15.866666666666667;endSize=6.689333333333334;" edge="1" parent="1">
          <mxGeometry width="50" height="50" relative="1" as="geometry">
            <mxPoint x="450" y="439.93" as="sourcePoint" />
            <mxPoint x="630" y="440" as="targetPoint" />
          </mxGeometry>
        </mxCell>
        <mxCell id="-Iv5MNubf8i9KW6JQkJ8-71" value="INFERENCE" style="edgeLabel;html=1;align=center;verticalAlign=middle;resizable=0;points=[];" vertex="1" connectable="0" parent="-Iv5MNubf8i9KW6JQkJ8-65">
          <mxGeometry x="-0.3249" relative="1" as="geometry">
            <mxPoint x="26" as="offset" />
          </mxGeometry>
        </mxCell>
        <mxCell id="-Iv5MNubf8i9KW6JQkJ8-68" value="" style="shape=curlyBracket;whiteSpace=wrap;html=1;rounded=1;flipH=1;labelPosition=right;verticalLabelPosition=middle;align=left;verticalAlign=middle;size=0.5;" vertex="1" parent="1">
          <mxGeometry x="880" y="380" width="20" height="120" as="geometry" />
        </mxCell>
        <mxCell id="-Iv5MNubf8i9KW6JQkJ8-69" value="" style="shape=curlyBracket;whiteSpace=wrap;html=1;rounded=1;labelPosition=left;verticalLabelPosition=middle;align=right;verticalAlign=middle;" vertex="1" parent="1">
          <mxGeometry x="820" y="380" width="20" height="120" as="geometry" />
        </mxCell>
        <mxCell id="-Iv5MNubf8i9KW6JQkJ8-70" value="multiplicity" style="text;html=1;align=center;verticalAlign=middle;whiteSpace=wrap;rounded=0;" vertex="1" parent="1">
          <mxGeometry x="820" y="510" width="80" height="30" as="geometry" />
        </mxCell>
      </root>
    </mxGraphModel>
  </diagram>
</mxfile>
